<?xml version="1.0" encoding="UTF-8" standalone="no"?>
<svg
   version="1.0"
   width="256.000000pt"
   height="410.000000pt"
   viewBox="0 0 256.000000 410.000000"
   preserveAspectRatio="xMidYMid meet"
   id="svg203"
   sodipodi:docname="lt_on.svg"
   inkscape:version="1.1.2 (0a00cf5339, 2022-02-04, custom)"
   xmlns:inkscape="http://www.inkscape.org/namespaces/inkscape"
   xmlns:sodipodi="http://sodipodi.sourceforge.net/DTD/sodipodi-0.dtd"
   xmlns="http://www.w3.org/2000/svg"
   xmlns:svg="http://www.w3.org/2000/svg">
  <defs
     id="defs207">
    <inkscape:path-effect
       effect="bspline"
       id="path-effect4353"
       is_visible="true"
       lpeversion="1"
       weight="33.333333"
       steps="2"
       helper_size="0"
       apply_no_weight="true"
       apply_with_weight="true"
       only_selected="false" />
    <linearGradient
       id="linearGradient3408"
       inkscape:swatch="solid">
      <stop
         style="stop-color:#000000;stop-opacity:1;"
         offset="0"
         id="stop3406" />
    </linearGradient>
  </defs>
  <sodipodi:namedview
     id="namedview205"
     pagecolor="#ffffff"
     bordercolor="#666666"
     borderopacity="1.0"
     inkscape:pageshadow="2"
     inkscape:pageopacity="0.0"
     inkscape:pagecheckerboard="0"
     inkscape:document-units="pt"
     showgrid="false"
     inkscape:snap-grids="false"
     inkscape:zoom="1.520122"
     inkscape:cx="-28.945046"
     inkscape:cy="273.66225"
     inkscape:window-width="1920"
     inkscape:window-height="1017"
     inkscape:window-x="-8"
     inkscape:window-y="-8"
     inkscape:window-maximized="1"
     inkscape:current-layer="svg203" />
  <path
     d="M 111.5,1 C 53.2,7.6 7.8,48.1 0.9,99.6 c -2.2,16.9 0.4,42.4 6.2,59.8 6,18 13.2,29.6 35.1,57 19.5,24.3 25.1,34.2 30.6,54.5 2.5,9.5 2.6,10 3.1,58.2 l 0.6,48.7 4,7.8 c 4.7,9.1 11,14.9 20.2,18.4 4.9,1.9 8.3,2.4 21.5,2.8 9.7,0.3 18.2,0 22.5,-0.8 13.1,-2.2 23.7,-10.2 29.1,-21.8 l 2.7,-5.7 0.6,-48 c 0.7,-50.6 1,-53.9 5.9,-68.4 5,-14.9 11,-24.6 30.1,-48.4 20.1,-25 27.6,-37.4 33.3,-55 4.8,-14.8 6,-23.7 6,-44.2 0,-16.3 -0.3,-20.1 -2.1,-26.7 C 241.5,56.3 220.5,31.2 190,15.6 177.8,9.3 167.5,5.8 154.1,3 142.7,0.7 122.7,-0.2 111.5,1 Z M 151,13.6 c 46.6,8.8 82.6,42.4 89.9,83.8 1.5,8.5 1.3,26.5 -0.4,37.6 -3.9,25.4 -12.1,42.5 -32.5,67.5 -30.4,37.2 -38,53.1 -41.5,86.7 l -0.6,5.8 H 126.5 87.2 l -0.7,-7.7 C 85.1,271.3 81.3,257.7 74.7,244.5 69.3,233.6 63.3,225 48.3,206.3 33.2,187.5 26,176.7 21.3,165.9 11.5,143.2 8.4,110.8 14,89.6 22.9,56.2 50.7,29 88,17.2 c 8.4,-2.7 16.7,-4.3 28,-5.6 6.3,-0.7 26.9,0.4 35,2 z"
     id="path199"
     style="fill:#000000;stroke:none;stroke-width:0.1" />
  <path
     style="fill:none;stroke:#000000;stroke-width:24;stroke-linecap:round;stroke-linejoin:round;stroke-miterlimit:1.9;stroke-dasharray:none;stroke-opacity:1"
     d="M 43.41757,111.50421 C 45.884342,102.13048 48.351199,92.756419 55.83439,82.477155 63.317581,72.197892 75.816079,61.015025 88.151188,55.012094 100.4863,49.009163 112.65613,48.186878 124.82552,47.364622"
     id="path4351"
     inkscape:path-effect="#path-effect4353"
     inkscape:original-d="m 43.41757,111.50421 c 2.467658,-9.3735 4.934515,-18.747558 7.400721,-28.122742 12.499997,-11.182786 24.998495,-22.365653 37.49699,-33.54994 12.171069,-0.821568 24.340899,-1.643854 36.510239,-2.466906"
     sodipodi:nodetypes="cccc" />
  <path
     style="fill:#ffff00;stroke:none;stroke-width:0.657842;fill-opacity:1"
     d="M 162.24027,14.882389 C 128.64293,15.789683 95.586384,27.804431 68.437406,47.455845 37.981728,69.984186 15.898285,105.65314 14.857744,144.10654 c -0.847006,26.32065 3.014967,53.15758 13.40763,77.46574 18.282957,40.11349 54.359477,68.765 72.816156,108.76203 9.30989,19.39731 13.20029,40.83958 14.75647,62.16607 1.74428,1.66635 5.16326,0.35079 7.4777,0.87419 32.52962,0.47082 65.06405,0.22081 97.59585,0.28602 1.82096,-4.57498 1.42835,-10.31379 2.41295,-15.32823 2.35668,-22.56623 9.55753,-44.75564 21.85358,-63.90938 16.19736,-26.93526 38.98136,-49.0684 55.22313,-75.96684 15.5731,-25.80621 23.06743,-56.14537 22.14215,-86.21966 0.27109,-11.62858 -0.0616,-23.41298 -3.85747,-34.53802 C 307.74151,79.259388 278.07713,47.899243 242.21691,31.173769 217.50231,18.884372 189.62818,14.589158 162.24027,14.882389 Z m 3.91237,32.895953 c 11.47188,-1.138472 19.8544,13.41821 13.65664,22.994917 -2.80228,5.58422 -8.99031,8.1682 -14.99458,8.102698 -17.45064,1.149557 -35.72491,3.737671 -50.223,14.33588 -17.267929,11.670093 -32.618454,27.877713 -38.385865,48.368183 -2.51364,7.54951 -3.516852,17.32903 -11.709056,21.06369 -8.503667,4.5463 -19.853432,-1.23992 -21.767888,-10.59485 -1.309917,-7.0252 2.253441,-13.89728 3.912361,-20.62823 6.518705,-21.57814 20.768922,-40.071045 37.859015,-54.495833 17.368083,-15.312945 39.313923,-25.423598 62.403863,-27.683196 6.38123,-0.795325 12.80156,-1.429565 19.24851,-1.463259 z"
     id="path9054"
     transform="scale(0.75)" />
  <path
     style="fill:#ffffff;stroke:none;stroke-width:0.657842;fill-opacity:1"
     d="M 165.57317,47.527797 C 141.06858,47.65854 116.04622,53.434126 95.781381,67.706711 79.458982,79.480538 64.567657,94.020636 54.731937,111.73677 c -5.905479,11.45709 -11.025701,23.70684 -12.5581,36.59246 -0.891856,10.89864 11.758871,19.6706 21.645827,15.08411 8.669214,-3.48928 10.158922,-13.78101 12.846836,-21.54358 6.545989,-22.43574 24.1438,-39.90812 43.74115,-51.6686 14.71713,-8.768105 32.22564,-9.44228 48.76438,-11.64558 9.76653,-0.816416 15.64415,-12.421192 11.85528,-21.097197 -2.29044,-6.343092 -8.58186,-10.864306 -15.45414,-9.930586 z"
     id="path15198"
     transform="scale(0.75)" />
</svg>
