<?xml version="1.0" encoding="UTF-8" standalone="no"?>
<svg
   version="1.0"
   width="256.000000pt"
   height="410.000000pt"
   viewBox="0 0 256.000000 410.000000"
   preserveAspectRatio="xMidYMid meet"
   id="svg203"
   sodipodi:docname="lt_off.svg"
   inkscape:version="1.1.2 (0a00cf5339, 2022-02-04, custom)"
   xmlns:inkscape="http://www.inkscape.org/namespaces/inkscape"
   xmlns:sodipodi="http://sodipodi.sourceforge.net/DTD/sodipodi-0.dtd"
   xmlns="http://www.w3.org/2000/svg"
   xmlns:svg="http://www.w3.org/2000/svg">
  <defs
     id="defs207">
    <marker
       style="overflow:visible"
       id="marker5107"
       refX="0.0"
       refY="0.0"
       orient="auto"
       inkscape:stockid="DotS"
       inkscape:isstock="true">
      <path
         transform="scale(0.2) translate(7.4, 1)"
         style="fill-rule:evenodd;fill:context-stroke;stroke:context-stroke;stroke-width:1.0pt"
         d="M -2.5,-1.0 C -2.5,1.7600000 -4.7400000,4.0 -7.5,4.0 C -10.260000,4.0 -12.5,1.7600000 -12.5,-1.0 C -12.5,-3.7600000 -10.260000,-6.0 -7.5,-6.0 C -4.7400000,-6.0 -2.5,-3.7600000 -2.5,-1.0 z "
         id="path5105" />
    </marker>
    <marker
       style="overflow:visible"
       id="marker5097"
       refX="0.0"
       refY="0.0"
       orient="auto"
       inkscape:stockid="DotS"
       inkscape:isstock="true">
      <path
         transform="scale(0.2) translate(7.4, 1)"
         style="fill-rule:evenodd;fill:context-stroke;stroke:context-stroke;stroke-width:1.0pt"
         d="M -2.5,-1.0 C -2.5,1.7600000 -4.7400000,4.0 -7.5,4.0 C -10.260000,4.0 -12.5,1.7600000 -12.5,-1.0 C -12.5,-3.7600000 -10.260000,-6.0 -7.5,-6.0 C -4.7400000,-6.0 -2.5,-3.7600000 -2.5,-1.0 z "
         id="path5095" />
    </marker>
    <marker
       style="overflow:visible;"
       id="Arrow1Send"
       refX="0.0"
       refY="0.0"
       orient="auto"
       inkscape:stockid="Arrow1Send"
       inkscape:isstock="true">
      <path
         transform="scale(0.2) rotate(180) translate(6,0)"
         style="fill-rule:evenodd;fill:context-stroke;stroke:context-stroke;stroke-width:1.0pt;"
         d="M 0.0,0.0 L 5.0,-5.0 L -12.5,0.0 L 5.0,5.0 L 0.0,0.0 z "
         id="path4696" />
    </marker>
    <marker
       style="overflow:visible"
       id="Arrow1Lstart"
       refX="0.0"
       refY="0.0"
       orient="auto"
       inkscape:stockid="Arrow1Lstart"
       inkscape:isstock="true">
      <path
         transform="scale(0.8) translate(12.5,0)"
         style="fill-rule:evenodd;fill:context-stroke;stroke:context-stroke;stroke-width:1.0pt"
         d="M 0.0,0.0 L 5.0,-5.0 L -12.5,0.0 L 5.0,5.0 L 0.0,0.0 z "
         id="path4681" />
    </marker>
    <marker
       style="overflow:visible"
       id="DiamondSend"
       refX="0.0"
       refY="0.0"
       orient="auto"
       inkscape:stockid="DiamondSend"
       inkscape:isstock="true">
      <path
         transform="scale(0.2) translate(-6,0)"
         style="fill-rule:evenodd;fill:context-stroke;stroke:context-stroke;stroke-width:1.0pt"
         d="M 0,-7.0710768 L -7.0710894,0 L 0,7.0710589 L 7.0710462,0 L 0,-7.0710768 z "
         id="path4784" />
    </marker>
    <marker
       style="overflow:visible"
       id="DotS"
       refX="0.0"
       refY="0.0"
       orient="auto"
       inkscape:stockid="DotS"
       inkscape:isstock="true">
      <path
         transform="scale(0.2) translate(7.4, 1)"
         style="fill-rule:evenodd;fill:context-stroke;stroke:context-stroke;stroke-width:1.0pt"
         d="M -2.5,-1.0 C -2.5,1.7600000 -4.7400000,4.0 -7.5,4.0 C -10.260000,4.0 -12.5,1.7600000 -12.5,-1.0 C -12.5,-3.7600000 -10.260000,-6.0 -7.5,-6.0 C -4.7400000,-6.0 -2.5,-3.7600000 -2.5,-1.0 z "
         id="path4748" />
    </marker>
    <marker
       style="overflow:visible"
       id="DotM"
       refX="0.0"
       refY="0.0"
       orient="auto"
       inkscape:stockid="DotM"
       inkscape:isstock="true">
      <path
         transform="scale(0.4) translate(7.4, 1)"
         style="fill-rule:evenodd;fill:context-stroke;stroke:context-stroke;stroke-width:1.0pt"
         d="M -2.5,-1.0 C -2.5,1.7600000 -4.7400000,4.0 -7.5,4.0 C -10.260000,4.0 -12.5,1.7600000 -12.5,-1.0 C -12.5,-3.7600000 -10.260000,-6.0 -7.5,-6.0 C -4.7400000,-6.0 -2.5,-3.7600000 -2.5,-1.0 z "
         id="path4745" />
    </marker>
    <inkscape:path-effect
       effect="bspline"
       id="path-effect4357"
       is_visible="true"
       lpeversion="1"
       weight="33.333333"
       steps="2"
       helper_size="0"
       apply_no_weight="true"
       apply_with_weight="true"
       only_selected="false" />
    <inkscape:path-effect
       effect="bspline"
       id="path-effect4353"
       is_visible="true"
       lpeversion="1"
       weight="33.333333"
       steps="2"
       helper_size="0"
       apply_no_weight="true"
       apply_with_weight="true"
       only_selected="false" />
    <inkscape:path-effect
       effect="bspline"
       id="path-effect4059"
       is_visible="true"
       lpeversion="1"
       weight="33.333333"
       steps="2"
       helper_size="0"
       apply_no_weight="true"
       apply_with_weight="true"
       only_selected="false" />
    <inkscape:path-effect
       effect="bspline"
       id="path-effect4055"
       is_visible="true"
       lpeversion="1"
       weight="33.333333"
       steps="2"
       helper_size="0"
       apply_no_weight="true"
       apply_with_weight="true"
       only_selected="false" />
    <linearGradient
       id="linearGradient3408"
       inkscape:swatch="solid">
      <stop
         style="stop-color:#000000;stop-opacity:1;"
         offset="0"
         id="stop3406" />
    </linearGradient>
  </defs>
  <sodipodi:namedview
     id="namedview205"
     pagecolor="#ffffff"
     bordercolor="#666666"
     borderopacity="1.0"
     inkscape:pageshadow="2"
     inkscape:pageopacity="0.0"
     inkscape:pagecheckerboard="0"
     inkscape:document-units="pt"
     showgrid="false"
     inkscape:snap-grids="false"
     inkscape:zoom="1.520122"
     inkscape:cx="41.115122"
     inkscape:cy="273.66225"
     inkscape:window-width="1920"
     inkscape:window-height="1017"
     inkscape:window-x="-8"
     inkscape:window-y="-8"
     inkscape:window-maximized="1"
     inkscape:current-layer="svg203" />
  <g
     transform="translate(0.000000,410.000000) scale(0.100000,-0.100000)"
     fill="#000000"
     stroke="none"
     id="g201">
    <path
       d="M1115 4090 c-583 -66 -1037 -471 -1106 -986 -22 -169 4 -424 62 -598 60 -180 132 -296 351 -570 195 -243 251 -342 306 -545 25 -95 26 -100 31 -582 l6 -487 40 -78 c47 -91 110 -149 202 -184 49 -19 83 -24 215 -28 97 -3 182 0 225 8 131 22 237 102 291 218 l27 57 6 480 c7 506 10 539 59 684 50 149 110 246 301 484 201 250 276 374 333 550 48 148 60 237 60 442 0 163 -3 201 -21 267 -88 315 -298 566 -603 722 -122 63 -225 98 -359 126 -114 23 -314 32 -426 20z m395 -126 c466 -88 826 -424 899 -838 15 -85 13 -265 -4 -376 -39 -254 -121 -425 -325 -675 -304 -372 -380 -531 -415 -867 l-6 -58 -394 0 -393 0 -7 77 c-14 160 -52 296 -118 428 -54 109 -114 195 -264 382 -151 188 -223 296 -270 404 -98 227 -129 551 -73 763 89 334 367 606 740 724 84 27 167 43 280 56 63 7 269 -4 350 -20z"
       id="path199" />
  </g>
  <path
     style="fill:none;stroke:#000000;stroke-width:24;stroke-linecap:round;stroke-linejoin:round;stroke-miterlimit:1.9;stroke-dasharray:none;stroke-opacity:1"
     d="M 43.41757,111.50421 C 45.884342,102.13048 48.351199,92.756419 55.83439,82.477155 63.317581,72.197892 75.816079,61.015025 88.151188,55.012094 100.4863,49.009163 112.65613,48.186878 124.82552,47.364622"
     id="path4351"
     inkscape:path-effect="#path-effect4353"
     inkscape:original-d="m 43.41757,111.50421 c 2.467658,-9.3735 4.934515,-18.747558 7.400721,-28.122742 12.499997,-11.182786 24.998495,-22.365653 37.49699,-33.54994 12.171069,-0.821568 24.340899,-1.643854 36.510239,-2.466906"
     sodipodi:nodetypes="cccc" />
</svg>
