<?xml version="1.0" encoding="UTF-8" standalone="no"?>
<svg
   width="16"
   height="16"
   fill="currentColor"
   class="bi bi-dash-square"
   viewBox="0 0 16 16"
   version="1.1"
   id="svg296"
   sodipodi:docname="zoom-out.svg"
   inkscape:version="1.1 (c68e22c387, 2021-05-23)"
   xmlns:inkscape="http://www.inkscape.org/namespaces/inkscape"
   xmlns:sodipodi="http://sodipodi.sourceforge.net/DTD/sodipodi-0.dtd"
   xmlns="http://www.w3.org/2000/svg"
   xmlns:svg="http://www.w3.org/2000/svg">
  <defs
     id="defs300" />
  <sodipodi:namedview
     id="namedview298"
     pagecolor="#505050"
     bordercolor="#eeeeee"
     borderopacity="1"
     inkscape:pageshadow="0"
     inkscape:pageopacity="0"
     inkscape:pagecheckerboard="0"
     showgrid="false"
     inkscape:zoom="45.875"
     inkscape:cx="7.9891008"
     inkscape:cy="7.0081744"
     inkscape:window-width="1280"
     inkscape:window-height="961"
     inkscape:window-x="-8"
     inkscape:window-y="-8"
     inkscape:window-maximized="1"
     inkscape:current-layer="svg296" />
  <path
     d="m 14.095369,1.5694824 a 0.96321526,0.95912806 0 0 1 0.963215,0.959128 V 14.038148 a 0.96321526,0.95912806 0 0 1 -0.963215,0.959128 H 2.5367847 A 0.96321526,0.95912806 0 0 1 1.5735694,14.038148 V 2.5286104 A 0.96321526,0.95912806 0 0 1 2.5367847,1.5694824 Z M 2.5367847,0.61035423 A 1.9264305,1.9182561 0 0 0 0.6103542,2.5286104 V 14.038148 a 1.9264305,1.9182561 0 0 0 1.9264305,1.918256 H 14.095369 a 1.9264305,1.9182561 0 0 0 1.92643,-1.918256 V 2.5286104 a 1.9264305,1.9182561 0 0 0 -1.92643,-1.91825617 z"
     id="path292"
     style="fill:#ffffff;stroke-width:0.96117" />
  <path
     d="m 4.5231608,8.2833788 a 0.45231608,0.5 0 0 1 0.4523161,-0.5 h 6.3324241 a 0.45231608,0.5 0 0 1 0,1 H 4.9754769 a 0.45231608,0.5 0 0 1 -0.4523161,-0.5 z"
     id="path294"
     style="fill:#ffffff;stroke-width:0.951122" />
  <path
     d="m 4.0980927,7.6730245 a 0.45231608,0.5 0 0 1 0.4523161,-0.5 h 6.3324242 a 0.45231608,0.5 0 0 1 0,1 H 4.5504088 a 0.45231608,0.5 0 0 1 -0.4523161,-0.5 z"
     id="path294-8"
     style="stroke-width:0.951122" />
  <path
     d="m 13.495913,0.968665 a 0.96321526,0.95776566 0 0 1 0.963215,0.9577656 V 13.41962 a 0.96321526,0.95776566 0 0 1 -0.963214,0.957765 H 1.9373296 A 0.96321526,0.95776566 0 0 1 0.9741144,13.41962 V 1.9264306 A 0.96321526,0.95776566 0 0 1 1.9373296,0.968665 Z M 1.9373296,0.01089933 A 1.9264305,1.9155313 0 0 0 0.01089916,1.9264306 V 13.41962 A 1.9264305,1.9155313 0 0 0 1.9373296,15.33515 H 13.495913 a 1.9264305,1.9155313 0 0 0 1.92643,-1.91553 V 1.9264306 a 1.9264305,1.9155313 0 0 0 -1.92643,-1.91553127 z"
     id="path292-3"
     style="stroke-width:0.960487" />
</svg>
